<svg width="185" height="52" fill="none" xmlns="http://www.w3.org/2000/svg"><path d="M1 2.408h18.552c2.744 0 4.746.624 6.007 1.872 1.261 1.227 1.892 2.898 1.892 5.013 0 2.052-.63 3.712-1.892 4.981-1.26 1.248-3.263 1.872-6.007 1.872H2.992V24.3H1V2.408zm24.46 7.266v-.667c0-1.607-.465-2.845-1.394-3.712-.93-.867-2.434-1.3-4.514-1.3H2.992V14.56h16.56c2.08 0 3.585-.423 4.514-1.27.929-.867 1.394-2.072 1.394-3.616zm6.42-.921h1.726v5.521l-.564.159c0-1.333.321-2.412.963-3.236.641-.847 1.515-1.46 2.622-1.84 1.106-.403 2.356-.604 3.75-.604h4.779v1.428h-4.78c-2.079 0-3.716.423-4.91 1.27-1.174.824-1.76 2.263-1.76 4.314V24.3h-1.825V8.753zm36.068 7.996v-.412c0-1.502-.387-2.73-1.162-3.681-.752-.952-1.87-1.65-3.352-2.094-1.482-.465-3.33-.698-5.542-.698-2.19 0-4.038.233-5.543.698-1.482.444-2.61 1.142-3.385 2.094-.752.952-1.128 2.179-1.128 3.68v.413c0 1.502.376 2.729 1.128 3.68.775.952 1.903 1.65 3.386 2.095 1.504.444 3.352.666 5.542.666 2.212 0 4.06-.222 5.542-.666 1.483-.445 2.6-1.143 3.352-2.095.775-.951 1.162-2.178 1.162-3.68zm-21.937-.222c0-1.925.475-3.48 1.427-4.664.951-1.185 2.312-2.052 4.082-2.602 1.77-.55 3.894-.825 6.372-.825 2.522 0 4.668.275 6.438.825 1.77.55 3.12 1.417 4.05 2.602.929 1.184 1.393 2.739 1.393 4.664 0 1.967-.464 3.543-1.394 4.727-.929 1.185-2.279 2.042-4.049 2.57-1.77.53-3.916.794-6.438.794-2.478 0-4.602-.265-6.372-.793-1.77-.53-3.13-1.386-4.082-2.57-.952-1.185-1.427-2.76-1.427-4.728zm35.325.063h1.162l.63-.73L95.74 24.3h-2.887l-11.517-7.71zM74.533 1.14h1.825V24.3h-1.825V1.14zm1.194 15.705v-1.428h7.302v1.428h-7.302zm16.362-8.09h2.722L82.498 16.59h-2.722L92.09 8.753zm6.161 8.915V8.752h1.825v8.853c0 1.502.299 2.654.896 3.458.598.804 1.516 1.364 2.755 1.682 1.261.296 2.887.444 4.879.444 1.681 0 3.219-.18 4.613-.54 1.416-.38 2.555-1.015 3.418-1.903.863-.889 1.295-2.115 1.295-3.68V8.752h1.825V24.3h-1.726v-5.52h.332c0 1.036-.266 1.924-.797 2.665-.508.74-1.228 1.343-2.157 1.808-.907.466-1.98.815-3.219 1.047a24.112 24.112 0 01-4.049.318c-2.102 0-3.894-.201-5.376-.603-1.461-.402-2.578-1.11-3.352-2.126-.775-1.015-1.162-2.422-1.162-4.22zm48.229-.921v-.412c0-1.46-.398-2.666-1.195-3.617-.774-.952-1.914-1.661-3.418-2.126-1.483-.487-3.308-.73-5.476-.73-2.169 0-4.005.233-5.51.698-1.482.444-2.61 1.142-3.385 2.094-.774.952-1.161 2.179-1.161 3.68v.413c0 1.502.387 2.729 1.161 3.68.775.952 1.903 1.65 3.385 2.095 1.505.444 3.341.666 5.51.666 2.168 0 3.993-.233 5.476-.698 1.504-.466 2.644-1.174 3.418-2.126.797-.952 1.195-2.157 1.195-3.617zm.133 7.551v-4.632l-.133-.095V1.139h1.825V24.3h-1.692zm-22.104-7.773c0-1.925.476-3.48 1.427-4.664.952-1.185 2.312-2.052 4.082-2.602 1.77-.55 3.895-.825 6.373-.825 3.783 0 6.571.624 8.363 1.872 1.814 1.248 2.721 3.321 2.721 6.219 0 1.84-.398 3.363-1.194 4.569-.797 1.184-2.014 2.073-3.651 2.665-1.637.571-3.717.857-6.239.857-2.478 0-4.603-.265-6.373-.793-1.77-.53-3.13-1.386-4.082-2.57-.951-1.185-1.427-2.76-1.427-4.728zm29.981-7.774h1.825V24.3h-1.825V8.753zm-.598-5.171c0-.423.122-.751.365-.984.266-.233.642-.349 1.129-.349.509 0 .896.116 1.161.35.266.232.399.56.399.983 0 .444-.133.782-.399 1.015-.265.233-.652.349-1.161.349-.487 0-.863-.116-1.129-.349-.243-.233-.365-.571-.365-1.015zM182.175 24.3v-8.63c0-1.523-.299-2.707-.896-3.553-.598-.847-1.527-1.428-2.788-1.745-1.239-.339-2.843-.508-4.813-.508-2.942 0-5.243.476-6.903 1.428-1.637.93-2.456 2.506-2.456 4.727V24.3h-1.825V8.753h1.726v5.521h-.332c0-1.12.277-2.052.83-2.792.553-.761 1.294-1.364 2.223-1.808.952-.445 2.025-.762 3.22-.952a24.443 24.443 0 013.783-.286c1.991 0 3.739.201 5.244.603 1.504.402 2.677 1.068 3.518 1.999.863.93 1.294 2.168 1.294 3.712v9.55h-1.825z" fill="#fff"/><path d="M82.498 16.59h-1.162l11.517 7.71h2.887l-12.612-8.44-.63.73zm0 0L94.81 8.753h-2.722L79.776 16.59h2.722zM1 2.408h18.552c2.744 0 4.746.624 6.007 1.872 1.261 1.227 1.892 2.898 1.892 5.013 0 2.052-.63 3.712-1.892 4.981-1.26 1.248-3.263 1.872-6.007 1.872H2.992V24.3H1V2.408zm24.46 7.266v-.667c0-1.607-.465-2.845-1.394-3.712-.93-.867-2.434-1.3-4.514-1.3H2.992V14.56h16.56c2.08 0 3.585-.423 4.514-1.27.929-.867 1.394-2.072 1.394-3.616zm6.42-.92h1.726v5.52l-.564.159c0-1.333.321-2.412.963-3.236.641-.847 1.515-1.46 2.622-1.84 1.106-.403 2.356-.604 3.75-.604h4.779v1.428h-4.78c-2.079 0-3.716.423-4.91 1.27-1.174.824-1.76 2.263-1.76 4.314V24.3h-1.825V8.753zm36.068 7.995v-.412c0-1.502-.387-2.73-1.162-3.681-.752-.952-1.87-1.65-3.352-2.094-1.482-.465-3.33-.698-5.542-.698-2.19 0-4.038.233-5.543.698-1.482.444-2.61 1.142-3.385 2.094-.752.952-1.128 2.179-1.128 3.68v.413c0 1.502.376 2.729 1.128 3.68.775.952 1.903 1.65 3.386 2.095 1.504.444 3.352.666 5.542.666 2.212 0 4.06-.222 5.542-.666 1.483-.445 2.6-1.143 3.352-2.095.775-.951 1.162-2.178 1.162-3.68zm-21.937-.222c0-1.925.475-3.48 1.427-4.664.951-1.185 2.312-2.052 4.082-2.602 1.77-.55 3.894-.825 6.372-.825 2.522 0 4.668.275 6.438.825 1.77.55 3.12 1.417 4.05 2.602.929 1.184 1.393 2.739 1.393 4.664 0 1.967-.464 3.543-1.394 4.727-.929 1.185-2.279 2.042-4.049 2.57-1.77.53-3.916.794-6.438.794-2.478 0-4.602-.265-6.372-.793-1.77-.53-3.13-1.386-4.082-2.57-.952-1.185-1.427-2.76-1.427-4.728zM74.533 1.139h1.825V24.3h-1.825V1.14zm1.194 15.705v-1.428h7.302v1.428h-7.302zm22.523.825V8.753h1.825v8.853c0 1.502.299 2.654.896 3.458.598.804 1.516 1.364 2.755 1.682 1.261.296 2.887.444 4.879.444 1.681 0 3.219-.18 4.613-.54 1.416-.38 2.555-1.015 3.418-1.903.863-.889 1.295-2.115 1.295-3.68V8.752h1.825V24.3h-1.726v-5.52h.332c0 1.036-.266 1.924-.797 2.665-.508.74-1.228 1.343-2.157 1.808-.907.466-1.98.815-3.219 1.047a24.112 24.112 0 01-4.049.318c-2.102 0-3.894-.201-5.376-.603-1.461-.402-2.578-1.11-3.352-2.126-.775-1.015-1.162-2.422-1.162-4.22zm48.229-.92v-.412c0-1.46-.398-2.666-1.195-3.617-.774-.952-1.914-1.661-3.418-2.126-1.483-.487-3.308-.73-5.476-.73-2.169 0-4.005.233-5.51.698-1.482.444-2.61 1.142-3.385 2.094-.774.952-1.161 2.179-1.161 3.68v.413c0 1.502.387 2.729 1.161 3.68.775.952 1.903 1.65 3.385 2.095 1.505.444 3.341.666 5.51.666 2.168 0 3.993-.233 5.476-.698 1.504-.466 2.644-1.174 3.418-2.126.797-.952 1.195-2.157 1.195-3.617zm.133 7.551v-4.632l-.133-.095V1.139h1.825V24.3h-1.692zm-22.104-7.773c0-1.925.476-3.48 1.427-4.664.952-1.185 2.312-2.052 4.082-2.602 1.77-.55 3.895-.825 6.373-.825 3.783 0 6.571.624 8.363 1.872 1.814 1.248 2.721 3.321 2.721 6.219 0 1.84-.398 3.363-1.194 4.569-.797 1.184-2.014 2.073-3.651 2.665-1.637.571-3.717.857-6.239.857-2.478 0-4.603-.265-6.373-.793-1.77-.53-3.13-1.386-4.082-2.57-.951-1.185-1.427-2.76-1.427-4.728zm29.981-7.774h1.825V24.3h-1.825V8.753zm-.598-5.171c0-.423.122-.751.365-.984.266-.233.642-.349 1.129-.349.509 0 .896.116 1.161.35.266.232.399.56.399.983 0 .444-.133.782-.399 1.015-.265.233-.652.349-1.161.349-.487 0-.863-.116-1.129-.349-.243-.233-.365-.571-.365-1.015zM182.175 24.3v-8.63c0-1.523-.299-2.707-.896-3.553-.598-.846-1.527-1.428-2.788-1.745-1.239-.339-2.843-.508-4.813-.508-2.942 0-5.243.476-6.903 1.428-1.637.93-2.456 2.506-2.456 4.727V24.3h-1.825V8.753h1.726v5.521h-.332c0-1.12.277-2.052.83-2.792.553-.761 1.294-1.364 2.223-1.808.952-.445 2.025-.762 3.22-.952a24.443 24.443 0 013.783-.286c1.991 0 3.739.201 5.244.603 1.504.402 2.677 1.068 3.518 1.999.863.93 1.294 2.168 1.294 3.712v9.55h-1.825z" stroke="#fff" stroke-width=".995"/><path d="M39.103 37.684c1.146 0 2.07.398 2.785 1.178.716.78 1.082 1.703 1.082 2.8 0 1.099-.366 2.037-1.082 2.817-.716.78-1.639 1.178-2.785 1.178-1.336 0-2.386-.51-3.134-1.544v4.535h-.717V37.875h.717v1.337c.748-1.019 1.782-1.528 3.134-1.528zm-.127.669c-1.32 0-2.514.78-3.007 1.877v2.865c.509 1.098 1.718 1.893 3.007 1.893.939 0 1.703-.318 2.323-.954.621-.637.94-1.433.94-2.371 0-.94-.319-1.735-.94-2.356-.62-.636-1.384-.954-2.323-.954zm7.939 7.304c-.907 0-1.64-.494-1.64-1.767v-9.563h.717v9.42c0 .828.382 1.241 1.13 1.241.302 0 .557-.08.795-.222v.668c-.27.143-.604.223-1.002.223zm5.288-.669c1.273 0 2.37-.684 2.991-1.511v-1.258c-.907-.588-1.83-.89-2.784-.89-1.608 0-2.594.731-2.594 1.83 0 1.225 1.05 1.83 2.387 1.83zm-.207.669c-.796 0-1.48-.223-2.069-.653-.573-.445-.86-1.05-.86-1.83 0-.748.303-1.352.892-1.798.605-.461 1.353-.684 2.26-.684 1.066 0 2.068.27 2.975.827v-1.002c0-1.464-.986-2.164-2.705-2.164-.907 0-1.766.27-2.578.811v-.732c.764-.493 1.671-.748 2.706-.748 1.973 0 3.294.923 3.294 2.77v3.373c0 .652.318 1.082.827 1.082a.97.97 0 00.446-.096v.59c-.144.079-.35.126-.621.126-.684 0-1.241-.445-1.305-1.32-.827.97-1.91 1.448-3.262 1.448zm9.546 0c-1.273 0-2.515-.366-3.135-.812v-.78c.907.621 1.957.923 3.119.923 1.48 0 2.434-.588 2.434-1.495 0-.446-.238-.764-.7-1.003-.461-.239-.875-.334-1.575-.525l-.319-.08c-.652-.175-1.034-.27-1.559-.509-.684-.35-1.162-.811-1.162-1.639 0-1.257 1.067-2.053 2.928-2.053 1.114 0 2.021.239 2.738.7v.732a5.105 5.105 0 00-2.69-.763c-1.48 0-2.244.557-2.244 1.384 0 .382.223.7.462.891.111.08.302.175.54.27.494.192.67.24 1.306.383l.89.222c.192.048.447.144.78.27.335.128.574.255.717.399.318.27.62.748.62 1.336 0 .653-.302 1.178-.907 1.576-.588.382-1.336.573-2.243.573zm8.31 0c-1.322 0-1.974-.828-1.974-2.18v-4.95h-1.941v-.652h1.941v-2.45h.716v2.45h2.833v.653h-2.833v4.758c0 1.225.43 1.702 1.432 1.702.446 0 .875-.111 1.29-.35v.669c-.335.238-.812.35-1.465.35zm4.723-.191h-.716v-7.59h.716v7.59zm.064-9.85c-.525.572-1.432-.335-.86-.86.526-.573 1.433.334.86.86zm6.46 10.04c-1.162 0-2.117-.381-2.865-1.161-.748-.78-1.13-1.719-1.13-2.832a3.93 3.93 0 011.13-2.817c.748-.78 1.719-1.162 2.88-1.162.844 0 1.608.191 2.292.589v.7c-.716-.413-1.448-.62-2.212-.62-.955 0-1.75.318-2.403.954-.636.637-.955 1.433-.955 2.371 0 .94.319 1.735.955 2.372.653.62 1.448.938 2.403.938.891 0 1.67-.238 2.355-.716v.716c-.668.446-1.48.669-2.45.669zm11.616 0c-1.273 0-2.514-.365-3.135-.81v-.78c.907.62 1.957.922 3.12.922 1.479 0 2.434-.588 2.434-1.495 0-.446-.239-.764-.7-1.003-.462-.239-.876-.334-1.576-.525l-.318-.08c-.653-.175-1.034-.27-1.56-.509-.684-.35-1.161-.811-1.161-1.639 0-1.257 1.066-2.053 2.928-2.053 1.114 0 2.02.239 2.737.7v.732a5.105 5.105 0 00-2.69-.763c-1.48 0-2.243.557-2.243 1.384 0 .382.223.7.461.891.112.08.303.175.541.27.494.192.669.24 1.305.383l.891.222c.191.048.446.144.78.27.334.128.573.255.716.399.318.27.62.748.62 1.336 0 .653-.302 1.178-.906 1.576-.59.382-1.337.573-2.244.573zm11.553-2.434v-5.347h.716v7.59h-.716v-1.32a4.288 4.288 0 01-3.23 1.512c-1.926 0-2.944-1.146-2.944-3.167v-4.615h.716v4.472c0 1.082.334 1.846.843 2.18a2.765 2.765 0 001.591.461c.589 0 1.162-.175 1.735-.525.573-.366 1.002-.78 1.289-1.241zm4.319 2.244h-.716v-7.59h.716v1.59c.557-.97 1.735-1.766 3.072-1.782v.732c-.716 0-1.353.207-1.894.62-.541.399-.939.876-1.178 1.401v5.029zm11.215-6.27v-1.32h.716v7.256c0 1.161-.382 2.036-1.13 2.657-.748.62-1.703.923-2.88.923-1.082 0-2.053-.239-2.928-.716v-.732c.875.525 1.83.78 2.88.78 2.021 0 3.342-.987 3.342-2.912v-1.05c-.716 1.002-1.767 1.511-3.119 1.511-1.146 0-2.085-.382-2.801-1.162-.716-.78-1.082-1.718-1.082-2.8 0-1.082.366-2.005 1.082-2.785.716-.78 1.655-1.162 2.801-1.162 1.352 0 2.403.51 3.119 1.512zm0 3.867v-2.849c-.494-1.098-1.687-1.861-2.976-1.861-.939 0-1.735.318-2.355.938-.621.621-.939 1.4-.939 2.34 0 .939.318 1.734.939 2.355.62.62 1.416.939 2.355.939 1.289 0 2.482-.764 2.976-1.862zm7.159 2.594c-1.194 0-2.18-.366-2.96-1.114-.78-.748-1.178-1.703-1.178-2.865 0-1.145.35-2.1 1.051-2.848.7-.764 1.607-1.146 2.721-1.146 1.273 0 2.259.557 2.753 1.385.509.811.748 1.639.748 2.466v.239h-6.557c.016.955.351 1.734 1.003 2.323.652.589 1.496.891 2.514.891.907 0 1.735-.238 2.451-.716v.7c-.605.462-1.448.685-2.546.685zm-3.406-4.504h5.825c0-1.098-.764-2.8-2.801-2.8-.891 0-1.607.286-2.148.859-.526.557-.828 1.21-.876 1.941zm9.968 2.897c.637.62 1.416.938 2.355.938.939 0 1.719-.318 2.339-.938.637-.637.955-1.433.955-2.372 0-.938-.318-1.734-.955-2.37-.62-.637-1.4-.955-2.339-.955-.939 0-1.718.318-2.355.954-.621.637-.939 1.433-.939 2.371 0 .94.318 1.735.939 2.372zm5.251.445c-.748.78-1.702 1.162-2.896 1.162-1.193 0-2.164-.382-2.912-1.162-.748-.78-1.114-1.719-1.114-2.817s.366-2.036 1.114-2.816c.748-.78 1.719-1.178 2.912-1.178 1.194 0 2.148.398 2.896 1.178a3.93 3.93 0 011.13 2.816 3.93 3.93 0 01-1.13 2.817zm4.157-4.376v5.347h-.716v-7.59h.716v1.32a4.288 4.288 0 013.23-1.512c1.926 0 2.944 1.146 2.944 3.167v4.615h-.716v-4.472c0-1.082-.334-1.846-.859-2.18-.509-.334-.987-.461-1.576-.461-.588 0-1.161.175-1.734.54-.573.35-1.003.764-1.289 1.226z" fill="#fff"/></svg>