<?xml version="1.0" encoding="utf-8"?><svg viewBox="0 0 39 39" xmlns="http://www.w3.org/2000/svg" xmlns:xlink="http://www.w3.org/1999/xlink"><style>:root>svg{display:none}:root>svg:target{display:block}</style><svg fill="none" viewBox="0 0 20 20" id="icon-inst" xmlns="http://www.w3.org/2000/svg"><path d="M14.45.4h-9.5A4.764 4.764 0 00.2 5.15v9.5a4.764 4.764 0 004.75 4.75h9.5a4.764 4.764 0 004.75-4.75v-9.5A4.764 4.764 0 0014.45.4zM9.7 13.858a3.958 3.958 0 110-7.917 3.958 3.958 0 010 7.917zm5.146-7.917a1.187 1.187 0 110-2.374 1.187 1.187 0 010 2.374z" fill="currentColor"/></svg><svg fill="none" viewBox="0 0 21 21" id="icon-phone" xmlns="http://www.w3.org/2000/svg"><g clip-path="url(#bclip0_158_877)"><path d="M19.626 14.94a14.864 14.864 0 01-4.701-1.227 1.497 1.497 0 00-1.956.683l-1.02 2.024a18.941 18.941 0 01-7.37-7.37L6.604 8.03a1.497 1.497 0 00.686-1.956A14.756 14.756 0 016.06 1.374 1.494 1.494 0 004.575 0H.75A.75.75 0 000 .75c0 3.054.666 5.998 1.978 8.755a20.432 20.432 0 009.52 9.518A20.196 20.196 0 0020.25 21a.75.75 0 00.75-.75v-3.825c0-.776-.591-1.415-1.374-1.485z" fill="#fff"/></g><defs><clipPath id="bclip0_158_877"><path fill="#fff" d="M0 0h21v21H0z"/></clipPath></defs></svg><svg fill="none" viewBox="0 0 39 39" id="icon-play" xmlns="http://www.w3.org/2000/svg"><circle cx="19.5" cy="19.5" r="19" stroke="#fff"/><path d="M25.178 19.026a1 1 0 010 1.684l-7.082 4.543a1 1 0 01-1.54-.842v-9.086a1 1 0 011.54-.842l7.082 4.543z" fill="#fff"/></svg><svg fill="none" viewBox="0 0 21 18" id="icon-tg" xmlns="http://www.w3.org/2000/svg"><path d="M.511 8.953l4.807 1.633 11.414-6.978c.166-.1.335.124.193.256l-8.641 7.953-.321 4.452a.369.369 0 00.625.29l2.66-2.616 4.865 3.681a.901.901 0 001.424-.525l3.386-15.376A1.128 1.128 0 0019.42.426L.487 7.676c-.594.227-.577 1.073.024 1.277z" fill="currentColor"/></svg><svg fill="none" viewBox="0 0 22 13" id="icon-vk" xmlns="http://www.w3.org/2000/svg"><path fill-rule="evenodd" clip-rule="evenodd" d="M18.438 7.72c.693.677 1.425 1.314 2.046 2.06.275.33.535.672.734 1.056.282.546.027 1.148-.463 1.18l-3.045-.001c-.785.065-1.412-.251-1.938-.788-.422-.43-.812-.886-1.218-1.33a2.883 2.883 0 00-.548-.487c-.415-.27-.776-.188-1.014.246-.242.44-.296.929-.32 1.42-.033.717-.25.906-.97.939-1.539.072-3-.16-4.356-.937-1.197-.684-2.125-1.65-2.932-2.745-1.572-2.13-2.776-4.47-3.858-6.877C.312.914.49.623 1.088.613 2.082.593 3.075.595 4.07.61c.404.006.671.238.827.62.538 1.32 1.195 2.578 2.02 3.743.22.31.445.62.764.839.353.242.622.161.788-.232.105-.25.151-.518.175-.785.079-.919.09-1.836-.049-2.752-.085-.572-.407-.942-.977-1.05C7.327.94 7.37.831 7.51.664 7.755.379 7.985.2 8.444.2h3.441c.542.107.662.35.736.895l.003 3.822c-.006.211.106.838.486.977.304.1.505-.144.687-.336.824-.875 1.412-1.908 1.937-2.978.233-.47.434-.96.628-1.448.144-.362.37-.54.778-.532l3.312.003c.098 0 .197.001.292.017.559.095.712.335.54.88-.272.855-.8 1.568-1.317 2.284-.553.764-1.143 1.502-1.691 2.27-.503.703-.463 1.057.162 1.666z" fill="currentColor"/></svg><svg fill="none" viewBox="0 0 19 19" id="icon-whatsapp" xmlns="http://www.w3.org/2000/svg"><path d="M9.628.4h-.005C4.647.4.601 4.448.601 9.425c0 1.974.636 3.804 1.718 5.29l-1.125 3.352 3.469-1.109a8.947 8.947 0 004.965 1.492c4.976 0 9.023-4.049 9.023-9.025S14.604.4 9.628.4zm5.251 12.744c-.217.615-1.082 1.125-1.77 1.274-.472.1-1.088.18-3.162-.68-2.652-1.098-4.36-3.793-4.493-3.968-.128-.175-1.072-1.427-1.072-2.722s.658-1.926.923-2.197c.218-.222.577-.323.923-.323.111 0 .212.005.302.01.265.011.398.027.573.445.218.525.748 1.82.811 1.953.065.133.129.314.039.489-.085.18-.16.26-.293.414-.133.153-.26.27-.392.435-.122.143-.26.297-.106.562.153.26.683 1.125 1.464 1.82 1.007.896 1.824 1.183 2.116 1.305.218.09.478.069.637-.1.202-.218.45-.58.705-.935.18-.255.408-.286.647-.196.244.085 1.533.722 1.799.854.265.133.44.196.504.308.063.112.063.636-.155 1.252z" fill="currentColor"/></svg><svg fill="none" viewBox="0 0 20 14" id="icon-yt" xmlns="http://www.w3.org/2000/svg"><path d="M19.06 1.398C18.372.582 17.106.25 14.688.25H5.91c-2.474 0-3.762.354-4.445 1.222C.8 2.318.8 3.565.8 5.29v3.29c0 3.343.79 5.04 5.11 5.04h8.779c2.097 0 3.26-.293 4.01-1.013.772-.738 1.1-1.942 1.1-4.028V5.29c0-1.82-.05-3.073-.74-3.892zM12.997 7.39L9.012 9.473a.613.613 0 01-.897-.543V4.777a.613.613 0 01.895-.544l3.986 2.07a.613.613 0 01.002 1.087z" fill="currentColor"/></svg></svg>